<mxfile host="app.diagrams.net" agent="Mozilla/5.0 (Windows NT 10.0; Win64; x64) AppleWebKit/537.36 (KHTML, like Gecko) Chrome/127.0.0.0 Safari/537.36" version="24.7.6">
  <diagram name="Page-1" id="6wnGiy3_Hml8tad4nLLn">
    <mxGraphModel dx="794" dy="412" grid="1" gridSize="10" guides="1" tooltips="1" connect="1" arrows="1" fold="1" page="1" pageScale="1" pageWidth="850" pageHeight="1100" math="0" shadow="0">
      <root>
        <mxCell id="0" />
        <mxCell id="1" parent="0" />
        <mxCell id="EqvYEMz56sSsCvxHdlzz-4" value="" style="edgeStyle=orthogonalEdgeStyle;rounded=0;orthogonalLoop=1;jettySize=auto;html=1;flowAnimation=1;" edge="1" parent="1" source="EqvYEMz56sSsCvxHdlzz-1">
          <mxGeometry relative="1" as="geometry">
            <mxPoint x="560" y="220" as="targetPoint" />
          </mxGeometry>
        </mxCell>
        <mxCell id="EqvYEMz56sSsCvxHdlzz-1" value="" style="verticalLabelPosition=bottom;verticalAlign=top;html=1;shadow=0;dashed=0;strokeWidth=1;shape=mxgraph.android.phone2;strokeColor=#6c8ebf;fillColor=#dae8fc;gradientColor=default;" vertex="1" parent="1">
          <mxGeometry x="540" y="40" width="60" height="110" as="geometry" />
        </mxCell>
        <object label="&lt;a href=&quot;test data&quot;&gt;Mobile&lt;/a&gt;" placeholders="1" id="EqvYEMz56sSsCvxHdlzz-2">
          <mxCell style="rounded=0;whiteSpace=wrap;html=1;" vertex="1" parent="1">
            <mxGeometry x="500" y="220" width="120" height="60" as="geometry" />
          </mxCell>
        </object>
      </root>
    </mxGraphModel>
  </diagram>
</mxfile>
